<?xml version="1.0" standalone="no"?>
<!DOCTYPE svg PUBLIC "-//W3C//DTD SVG 20010904//EN"
 "http://www.w3.org/TR/2001/REC-SVG-20010904/DTD/svg10.dtd">
<svg version="1.0" xmlns="http://www.w3.org/2000/svg"
 width="726.000000pt" height="726.000000pt" viewBox="0 0 726.000000 726.000000"
 preserveAspectRatio="xMidYMid meet">
<metadata>
Created by potrace 1.14, written by Peter Selinger 2001-2017
</metadata>
<g transform="translate(0.000000,726.000000) scale(0.100000,-0.100000)"
fill="#000000" stroke="none">
<path d="M3428 7254 c-2 -2 -29 -6 -60 -8 -30 -3 -71 -8 -89 -11 -187 -31
-322 -64 -449 -109 -41 -15 -79 -28 -85 -30 -43 -13 -267 -117 -300 -140 -16
-12 -31 -19 -33 -18 -6 7 -245 -152 -325 -216 -148 -119 -294 -263 -392 -387
-22 -27 -46 -56 -52 -63 -17 -18 -142 -206 -170 -256 -32 -57 -124 -241 -150
-301 -79 -185 -162 -484 -179 -645 -2 -25 -7 -56 -10 -70 -3 -14 -7 -113 -9
-220 -3 -176 1 -252 20 -375 10 -69 12 -79 19 -110 3 -16 8 -39 11 -50 36
-171 112 -356 235 -570 22 -38 44 -79 50 -90 5 -11 14 -27 20 -35 16 -25 130
-222 130 -225 0 -1 70 -121 157 -266 86 -145 176 -298 200 -339 25 -41 58 -95
74 -120 16 -25 32 -52 36 -60 19 -39 258 -426 266 -431 5 -3 9 -10 9 -15 1 -5
11 -25 23 -44 24 -38 311 -503 445 -720 46 -74 97 -157 115 -185 77 -122 96
-152 116 -190 12 -22 25 -42 29 -45 3 -3 22 -31 41 -64 19 -32 41 -70 50 -85
129 -208 354 -576 358 -586 2 -5 7 -12 10 -15 7 -6 21 -28 58 -93 32 -58 20
-68 134 118 44 72 105 171 136 220 31 50 63 102 72 117 9 14 36 59 61 98 25
39 52 84 61 98 9 15 94 153 189 307 95 154 189 307 209 340 19 33 38 62 41 65
3 3 20 29 38 59 36 58 35 73 -7 118 -9 10 -52 64 -94 121 -43 56 -81 102 -86
102 -4 0 -15 -15 -24 -32 -10 -18 -30 -53 -47 -78 -16 -25 -40 -63 -53 -85
-13 -22 -124 -202 -247 -400 -122 -198 -231 -375 -242 -393 -10 -18 -27 -45
-37 -60 -11 -15 -31 -47 -46 -71 l-27 -43 -76 123 c-152 248 -596 965 -621
1004 -14 22 -26 42 -26 45 -1 3 -17 30 -37 60 -40 62 -435 704 -452 735 -6 11
-63 106 -126 210 -63 105 -119 198 -125 207 -20 33 -72 124 -91 158 -10 19
-21 37 -24 40 -5 5 -126 209 -179 303 -11 20 -29 52 -40 70 -209 363 -244 433
-290 574 -29 90 -32 101 -51 203 -21 115 -24 160 -25 325 0 211 7 278 51 485
12 58 48 178 76 254 16 45 34 95 40 111 12 33 128 264 140 280 5 6 31 46 59
90 62 96 135 190 205 265 29 30 63 66 76 80 13 14 57 54 98 90 41 36 77 67 80
70 14 16 154 112 221 152 144 88 391 201 468 215 14 2 29 7 35 11 6 3 16 7 21
8 6 1 30 7 55 14 58 16 104 25 215 45 154 26 506 27 640 2 20 -4 63 -12 120
-21 17 -3 66 -15 110 -26 44 -12 87 -23 95 -25 99 -26 373 -149 456 -205 25
-16 47 -30 50 -30 15 0 140 -92 243 -179 258 -216 507 -557 619 -846 10 -28
23 -59 27 -70 5 -11 9 -22 10 -25 1 -3 11 -38 24 -79 12 -41 24 -81 26 -90 50
-221 56 -274 58 -496 1 -222 -11 -337 -59 -555 -15 -72 -55 -193 -97 -295 -58
-143 -121 -260 -260 -482 -67 -107 -129 -206 -138 -221 -44 -72 -309 -498
-316 -508 -12 -15 -29 -44 -53 -87 -11 -21 -25 -44 -30 -50 -6 -7 -45 -67 -86
-135 -82 -133 -78 -130 -146 -96 -15 8 -32 14 -37 14 -25 0 -128 56 -227 122
-120 80 -277 229 -337 320 -95 145 -209 399 -232 516 -2 13 -6 31 -9 40 -4 15
-11 54 -22 122 -16 102 -24 284 -14 300 4 7 13 -12 19 -41 50 -227 143 -405
253 -489 75 -56 140 -77 235 -74 166 4 280 90 343 259 12 33 24 73 26 90 4 31
16 48 36 51 34 5 138 37 138 43 0 3 15 13 33 20 49 22 130 109 161 174 82 167
-8 400 -201 523 -116 75 -303 131 -495 150 -38 4 -68 11 -68 16 0 5 3 7 8 5 4
-3 36 1 72 9 36 8 76 16 90 18 45 8 173 47 239 73 133 53 214 108 288 195 65
78 86 211 53 331 -26 94 -63 147 -140 201 -66 46 -86 55 -168 76 -42 11 -76
21 -77 22 -1 2 -12 35 -24 73 -31 93 -62 146 -123 205 -65 64 -136 91 -243 95
-116 5 -170 -18 -260 -109 -52 -53 -80 -93 -111 -156 -61 -126 -105 -288 -119
-439 -3 -29 -7 -56 -9 -60 -3 -5 -17 -199 -19 -258 -1 -26 -10 -2 -12 29 -1
18 -5 51 -8 73 -3 22 -9 63 -12 90 -10 90 -14 109 -38 210 -66 273 -128 404
-236 500 -79 70 -144 96 -241 100 -170 5 -310 -101 -370 -280 -12 -35 -22 -73
-23 -85 -2 -25 -15 -32 -97 -55 -87 -24 -191 -97 -230 -161 -52 -87 -63 -128
-57 -224 5 -83 26 -154 57 -195 54 -71 125 -127 222 -175 58 -28 115 -53 129
-56 34 -7 41 -9 65 -17 32 -11 172 -37 224 -42 92 -8 150 -18 150 -25 0 -4 -6
-7 -12 -7 -24 0 -118 -14 -202 -29 -118 -21 -359 -116 -441 -173 -145 -101
-204 -242 -166 -397 7 -29 13 -58 14 -66 5 -27 61 -114 96 -145 54 -48 155
-96 228 -109 47 -8 64 -15 58 -24 -3 -5 -1 -11 4 -14 4 -3 11 -23 15 -43 12
-75 91 -200 153 -243 70 -48 137 -67 225 -64 104 4 102 3 169 41 49 27 147
125 158 156 2 7 7 14 10 17 8 7 61 121 65 140 2 8 9 29 16 45 7 17 24 87 38
157 14 70 27 126 29 124 3 -2 6 -98 8 -212 3 -115 6 -218 9 -229 2 -11 7 -49
11 -85 4 -36 9 -68 11 -71 2 -4 6 -24 10 -45 23 -160 118 -378 246 -569 84
-126 103 -150 213 -260 79 -80 142 -133 200 -169 17 -11 71 -49 120 -86 50
-37 145 -103 211 -148 l122 -81 108 175 c60 96 116 185 124 199 49 80 146 237
172 280 353 564 596 960 637 1036 133 250 225 540 265 839 26 190 26 551 1
690 -7 36 -16 92 -20 115 -3 19 -31 144 -39 175 -17 62 -54 170 -86 250 -37
92 -147 320 -159 330 -4 3 -26 37 -49 77 -23 39 -48 78 -55 85 -6 7 -24 31
-38 53 -14 22 -41 58 -60 81 -19 23 -46 57 -61 75 -75 97 -286 297 -403 383
-22 17 -42 33 -45 36 -7 8 -188 123 -230 146 -19 10 -36 22 -38 27 -2 4 -8 7
-12 7 -5 0 -57 23 -117 51 -135 64 -128 61 -250 103 -100 34 -314 90 -383 100
-19 2 -57 8 -85 11 -27 4 -61 9 -75 12 -30 6 -467 13 -472 7z m467 -127 c11
-3 45 -8 75 -12 30 -4 64 -9 75 -11 135 -28 137 -29 200 -45 28 -6 56 -16 63
-22 6 -5 12 -7 12 -3 0 3 12 1 28 -5 15 -6 35 -12 44 -14 32 -7 203 -78 289
-120 83 -41 249 -139 304 -180 15 -11 49 -36 75 -55 131 -96 324 -285 420
-410 19 -24 45 -56 58 -70 12 -13 22 -28 22 -32 0 -3 6 -13 13 -20 7 -7 24
-31 37 -53 13 -22 27 -42 30 -45 13 -11 113 -194 159 -292 42 -89 121 -305
136 -371 2 -12 12 -53 21 -92 9 -38 18 -83 19 -100 2 -16 6 -40 9 -53 13 -57
20 -181 19 -337 -1 -225 -6 -278 -50 -515 -35 -197 -142 -478 -257 -677 -68
-117 -249 -411 -266 -430 -5 -7 -10 -14 -10 -17 0 -4 -133 -219 -205 -331 -18
-27 -45 -72 -61 -98 -50 -84 -59 -99 -148 -240 -47 -76 -86 -142 -86 -147 0
-5 -4 -10 -8 -12 -4 -1 -26 -32 -47 -68 -21 -36 -54 -88 -72 -117 l-33 -52
-100 69 c-116 80 -196 140 -186 140 3 0 55 -18 115 -40 60 -22 115 -40 123
-40 8 0 36 36 64 81 27 44 58 95 69 113 11 18 33 54 50 82 16 27 32 51 35 54
4 3 10 12 13 20 4 8 16 29 26 45 253 409 392 632 401 642 5 7 10 17 10 23 0 5
4 10 9 10 5 0 11 8 14 18 6 18 38 73 48 82 10 9 149 239 188 312 50 94 121
260 155 366 37 115 85 322 91 397 2 17 7 66 11 110 15 146 9 439 -12 565 -6
38 -33 169 -39 190 -1 3 -5 19 -9 35 -4 17 -10 37 -12 45 -3 8 -5 17 -6 20 0
3 -6 21 -13 40 -7 19 -28 73 -45 120 -45 120 -138 299 -222 426 -39 60 -74
111 -78 114 -3 3 -19 23 -36 45 -47 65 -83 104 -195 216 -367 366 -834 589
-1354 647 -77 9 -425 8 -490 0 -27 -4 -70 -10 -95 -13 -25 -4 -51 -8 -59 -11
-8 -3 -30 -7 -50 -10 -30 -5 -74 -15 -201 -49 -29 -7 -194 -67 -205 -73 -5 -4
-14 -7 -20 -8 -34 -6 -352 -178 -400 -216 -5 -5 -41 -32 -80 -60 -244 -179
-465 -427 -615 -689 -36 -62 -65 -116 -66 -119 0 -3 -19 -43 -41 -90 -44 -95
-123 -308 -123 -334 0 -10 -4 -25 -9 -34 -8 -15 -41 -165 -56 -252 -15 -90
-19 -159 -19 -335 -1 -221 8 -309 50 -468 9 -34 18 -69 19 -77 5 -21 40 -114
67 -180 24 -56 72 -147 168 -315 11 -19 29 -51 40 -70 11 -19 28 -50 39 -67
10 -18 27 -49 37 -68 11 -19 22 -37 25 -40 3 -3 13 -19 22 -36 12 -24 165
-287 206 -354 5 -8 54 -89 108 -179 54 -90 107 -178 118 -197 30 -49 197 -322
222 -363 12 -20 28 -46 35 -59 14 -25 343 -557 395 -639 19 -29 34 -56 36 -60
1 -4 25 -42 52 -85 28 -43 66 -104 86 -135 20 -32 66 -106 102 -165 37 -59 67
-112 67 -117 0 -5 4 -11 8 -13 4 -1 28 -37 53 -78 127 -210 246 -402 286 -464
l44 -69 37 62 c20 34 107 174 192 312 85 137 160 257 165 267 6 9 18 28 26 42
9 14 62 99 118 190 113 183 112 182 160 259 l34 54 28 -34 c16 -19 29 -40 29
-47 0 -10 -386 -645 -495 -812 -12 -19 -80 -129 -150 -245 -71 -116 -133 -216
-139 -222 -9 -10 -34 25 -106 144 -52 86 -104 171 -115 189 -11 18 -54 88 -95
156 -41 68 -77 125 -80 128 -3 3 -28 43 -56 90 -28 47 -119 195 -202 329 -84
134 -152 248 -152 252 0 5 -3 9 -8 9 -4 0 -12 9 -17 20 -6 11 -77 130 -160
263 -82 133 -154 250 -160 259 -5 10 -55 91 -110 179 -55 89 -102 167 -104
173 -2 6 -7 13 -10 16 -4 3 -86 138 -182 300 -366 612 -603 1023 -667 1155
-44 90 -108 281 -126 375 -3 14 -9 48 -15 75 -26 132 -36 448 -18 590 4 33 9
80 12 105 8 65 52 257 79 347 134 444 384 834 722 1128 114 100 112 98 241
188 185 129 504 276 702 322 9 3 45 11 81 20 35 9 74 18 85 20 11 2 20 4 20 5
0 1 20 4 45 6 25 3 52 7 59 10 8 3 49 8 90 11 42 3 77 7 79 8 6 5 405 -3 427
-8z m378 -1431 c40 -16 100 -74 122 -115 7 -15 23 -58 36 -96 12 -39 29 -80
37 -93 17 -26 81 -62 110 -62 65 0 195 -75 230 -133 37 -60 48 -166 25 -233
-29 -85 -172 -190 -318 -234 -108 -32 -145 -42 -210 -56 -38 -8 -86 -17 -105
-20 -64 -9 -62 -4 -54 -126 3 -62 8 -115 10 -117 2 -2 16 -5 31 -6 29 -2 119
-13 163 -21 138 -22 290 -76 365 -128 118 -83 189 -248 149 -345 -38 -90 -100
-138 -237 -183 -100 -33 -131 -60 -143 -123 -9 -46 -8 -44 -18 -70 -4 -11 -13
-33 -19 -50 -34 -96 -116 -155 -222 -159 -55 -2 -72 1 -122 28 -104 56 -192
208 -239 411 -8 33 -16 69 -19 79 -9 38 -63 131 -76 131 -8 0 -17 4 -21 10 -4
5 -52 10 -108 10 l-100 1 -10 -36 c-5 -19 -12 -48 -14 -65 -3 -16 -8 -41 -11
-55 -3 -14 -10 -50 -15 -81 -13 -69 -59 -208 -90 -269 -59 -118 -143 -182
-243 -185 -83 -3 -124 12 -178 65 -54 53 -85 116 -104 210 0 3 -9 20 -18 37
-20 38 -52 56 -127 72 -102 22 -193 78 -225 141 -65 126 -40 264 63 342 85 65
301 152 429 174 15 2 51 9 78 14 28 5 77 12 110 16 33 3 61 7 62 8 3 3 5 59 4
147 l-1 96 -37 -2 c-21 0 -47 2 -58 6 -11 3 -56 9 -99 13 -44 4 -82 9 -86 11
-4 3 -25 7 -46 11 -22 3 -57 10 -79 16 -22 6 -49 13 -60 15 -11 2 -63 24 -115
49 -152 73 -220 162 -220 288 0 49 30 128 62 166 23 28 101 67 176 89 100 30
126 56 152 155 24 92 39 123 82 172 58 66 141 90 240 71 44 -9 61 -20 118 -76
42 -42 76 -88 94 -126 26 -55 81 -224 92 -285 3 -14 9 -41 14 -60 15 -54 31
-171 44 -311 4 -37 9 -77 11 -90 3 -13 8 -39 11 -56 4 -21 12 -33 22 -33 40 0
192 35 193 44 0 6 2 20 4 31 7 34 14 116 21 225 3 57 8 114 11 125 2 11 6 38
9 60 15 124 61 299 100 377 44 86 117 167 178 194 38 17 137 12 189 -10z"/>
</g>
</svg>
