<?xml version="1.0" standalone="no"?>
<!DOCTYPE svg PUBLIC "-//W3C//DTD SVG 20010904//EN"
 "http://www.w3.org/TR/2001/REC-SVG-20010904/DTD/svg10.dtd">
<svg version="1.0" xmlns="http://www.w3.org/2000/svg"
 width="700.000000pt" height="700.000000pt" viewBox="0 0 700.000000 700.000000"
 preserveAspectRatio="xMidYMid meet">
<metadata>
Created by potrace 1.14, written by Peter Selinger 2001-2017
</metadata>
<g transform="translate(0.000000,700.000000) scale(0.100000,-0.100000)"
fill="#000000" stroke="none">
<path d="M3350 6073 c-705 -71 -1286 -537 -1510 -1212 -62 -186 -81 -292 -87
-496 -8 -259 26 -448 116 -648 61 -135 421 -745 854 -1447 138 -223 358 -580
489 -795 285 -463 286 -465 296 -465 6 1 220 345 600 965 l64 104 -77 100
c-42 56 -81 99 -85 96 -5 -3 -119 -185 -255 -406 -217 -350 -249 -398 -260
-382 -6 10 -180 290 -385 623 -595 964 -974 1603 -1031 1740 -137 325 -110
750 71 1125 79 163 160 277 294 411 219 218 456 348 757 416 90 20 131 23 309
23 178 0 219 -3 309 -23 468 -105 835 -395 1047 -827 113 -232 149 -403 141
-675 -8 -262 -50 -434 -157 -645 -74 -146 -609 -1005 -626 -1005 -63 0 -262
120 -362 219 -165 162 -272 420 -287 687 l-5 99 19 -68 c43 -154 127 -283 216
-330 30 -16 58 -21 110 -21 131 0 217 67 258 201 l22 73 56 16 c71 20 145 76
184 138 25 41 30 60 30 110 -1 195 -156 326 -444 375 l-106 18 53 7 c70 9 250
68 313 103 153 83 206 238 131 386 -33 63 -110 120 -191 140 -53 14 -55 15
-72 63 -26 77 -44 107 -92 151 -51 47 -105 66 -189 65 -127 0 -232 -113 -288
-307 -26 -90 -50 -235 -50 -305 -1 -71 -15 -47 -24 40 -11 95 -62 284 -98 359
-84 177 -250 246 -398 165 -72 -39 -115 -101 -140 -201 -10 -39 -13 -43 -64
-57 -81 -24 -146 -72 -179 -133 -80 -150 -17 -312 153 -398 87 -44 161 -65
300 -85 l115 -17 -65 -7 c-134 -14 -324 -81 -412 -145 -111 -80 -143 -225 -78
-351 36 -70 126 -133 209 -146 38 -6 42 -10 52 -48 39 -146 135 -226 269 -226
75 0 122 20 183 78 48 46 110 173 132 272 9 41 18 80 20 85 2 6 4 -24 4 -65 2
-203 37 -405 91 -532 57 -133 163 -291 265 -392 84 -85 451 -344 465 -330 29
32 696 1121 742 1213 176 347 232 795 147 1161 -103 444 -373 832 -754 1083
-225 148 -462 235 -743 272 -102 14 -281 17 -372 8z m420 -107 c247 -41 453
-122 652 -255 421 -283 693 -734 738 -1222 27 -295 -35 -630 -165 -891 -42
-85 -661 -1095 -690 -1127 -11 -11 -27 -3 -94 44 -45 32 -80 59 -78 62 3 2 34
-7 71 -21 l66 -25 27 42 c254 401 615 993 649 1063 119 248 170 522 152 824
-12 205 -58 374 -158 575 -80 160 -172 287 -305 420 -277 277 -609 431 -1002
465 -278 23 -589 -38 -844 -166 -217 -108 -471 -332 -602 -529 -263 -398 -350
-874 -235 -1290 50 -182 280 -578 1187 -2047 200 -324 366 -586 370 -583 4 2
120 186 257 409 137 223 252 405 255 406 4 0 14 -11 23 -24 15 -24 11 -33
-255 -463 -149 -241 -274 -442 -278 -446 -4 -4 -125 183 -268 415 -144 233
-343 556 -443 718 -397 642 -780 1292 -846 1435 -86 187 -119 373 -111 610 7
180 28 301 83 465 211 633 752 1074 1410 1150 101 11 324 4 434 -14z m183
-990 c46 -19 91 -75 107 -132 21 -77 43 -101 108 -120 70 -20 137 -57 157 -88
22 -34 34 -112 23 -152 -13 -49 -63 -101 -127 -134 -68 -34 -200 -75 -295 -91
l-69 -12 7 -80 c4 -44 9 -84 12 -89 3 -4 22 -8 42 -8 20 0 78 -9 128 -19 195
-40 289 -109 323 -235 15 -56 3 -94 -45 -142 -33 -33 -59 -48 -114 -65 -81
-24 -90 -34 -120 -130 -33 -110 -78 -149 -170 -149 -113 0 -182 80 -236 272
-14 51 -35 112 -47 136 -25 48 -45 55 -142 50 l-59 -3 -23 -110 c-35 -177 -58
-236 -115 -300 -40 -46 -77 -65 -128 -65 -91 0 -147 51 -181 165 -23 74 -39
89 -116 105 -55 12 -122 54 -148 93 -19 29 -30 105 -21 150 18 94 191 182 436
222 52 8 98 15 103 15 4 0 7 38 7 85 0 98 14 87 -140 105 -292 34 -452 144
-423 292 15 80 60 121 164 151 68 20 85 38 109 116 23 76 51 121 87 142 99 58
205 15 271 -109 39 -73 86 -253 102 -392 19 -171 29 -212 48 -206 9 2 43 10
74 17 31 6 59 18 62 25 2 6 7 56 11 111 19 295 76 483 172 562 30 25 47 31 86
31 26 0 62 -6 80 -14z"/>
</g>
</svg>
