<svg width="185" height="185" viewBox="0 0 185 185" fill="none" xmlns="http://www.w3.org/2000/svg">
<path d="M17.9218 17.9218L17.9134 17.9301C13.1139 22.696 10.2153 27.4528 7.98405 33.1298C5.8529 38.6462 4.32994 45.001 3.91116 54.4913L17.9218 17.9218ZM17.9218 17.9218L17.9301 17.9134M17.9218 17.9218L17.9301 17.9134M17.9301 17.9134C22.6968 13.1131 27.4533 10.2153 33.1655 7.9842M17.9301 17.9134L33.1655 7.9842M17.9134 167.07L17.9218 167.078C22.7007 171.857 27.4626 174.787 33.1211 176.976C38.6397 179.109 44.9965 180.634 54.4924 181.053C64.283 181.483 67.3696 181.591 92.4639 181.591C117.558 181.591 120.645 181.483 130.435 181.053C139.935 180.634 146.325 179.108 151.8 176.979L151.806 176.977C157.465 174.787 162.227 171.857 167.006 167.078C171.785 162.299 174.715 157.537 176.904 151.879C179.037 146.36 180.562 140.004 180.981 130.508C181.411 120.717 181.519 117.63 181.519 92.5361C181.519 67.4418 181.411 64.3552 180.981 54.5647C180.561 45.065 179.036 38.6753 176.907 33.1999L176.897 33.1747L176.888 33.1494C174.772 27.4407 171.887 22.6972 167.087 17.9301L167.078 17.9218C162.299 13.1428 157.537 10.213 151.879 8.02355L17.9134 167.07ZM17.9134 167.07C13.1129 162.303 10.215 157.546 7.98387 151.834M17.9134 167.07L7.98387 151.834M130.508 3.94724L130.496 3.94675C120.676 3.48082 117.596 3.3724 92.5 3.3724C67.4057 3.3724 64.3191 3.48076 54.5285 3.91111L130.508 3.94724ZM130.508 3.94724C140.003 4.36615 146.359 5.89036 151.878 8.02312L130.508 3.94724ZM171.098 54.9176C170.684 45.5455 169.087 40.2696 167.693 36.6837C165.864 31.9535 163.62 28.4835 160.032 24.8956C156.482 21.3458 152.977 19.0645 148.243 17.2344C144.659 15.8409 139.419 14.2442 130.01 13.8301L54.9904 171.025C64.7824 171.462 67.7682 171.571 92.5 171.571C117.198 171.571 120.182 171.462 130.011 171.025C139.379 170.611 144.655 169.016 148.24 167.622C152.972 165.793 156.443 163.549 160.032 159.96C163.582 156.41 165.863 152.905 167.693 148.172C169.087 144.588 170.683 139.348 171.098 129.939L167.741 129.79L171.098 129.937C171.534 120.145 171.643 117.16 171.643 92.4277C171.643 67.7309 171.534 64.7461 171.098 54.9176ZM171.098 54.9176L167.729 55.0664L171.098 54.9167C171.098 54.917 171.098 54.9173 171.098 54.9176ZM92.5 13.2848C117.232 13.2848 120.218 13.3933 130.01 13.8301L92.5 13.2848ZM92.5 13.2848C67.7677 13.2848 64.7823 13.3933 54.9898 13.8301L92.5 13.2848ZM17.3067 36.6846C19.1368 31.9511 21.418 28.4455 24.9679 24.8956C28.556 21.3075 32.0262 19.0634 36.7569 17.2344C40.3426 15.8403 45.618 14.2443 54.9884 13.8302L17.3067 36.6846ZM17.3067 36.6846C15.9132 40.2686 14.3166 45.5079 13.9024 54.9161L17.3067 36.6846ZM36.7597 167.622C32.0248 165.792 28.5185 163.51 24.9679 159.96C21.3798 156.372 19.1357 152.902 17.3067 148.171C15.9125 144.585 14.3165 139.31 13.9024 129.939L36.7597 167.622ZM36.7597 167.622C40.3436 169.015 45.5826 170.611 54.9884 171.025L36.7597 167.622ZM33.1655 7.9842C38.6405 5.85525 45.0297 4.33023 54.528 3.91113L33.1655 7.9842ZM7.98387 151.834C5.85509 146.359 4.3302 139.97 3.91113 130.472L7.98387 151.834ZM13.3571 92.4277C13.3571 117.125 13.4656 120.109 13.9024 129.938L13.9024 54.9182C13.4655 64.7101 13.3571 67.696 13.3571 92.4277ZM3.3724 92.5C3.3724 67.4063 3.48075 64.3191 3.91111 54.4924V130.471C3.48076 120.681 3.3724 117.594 3.3724 92.5Z" stroke="black" stroke-width="6.74479"/>
<path d="M48.3568 92.4795C48.3568 68.1096 68.1291 48.3372 92.499 48.3372C116.869 48.3372 136.641 68.1096 136.641 92.4795C136.641 116.849 116.869 136.622 92.499 136.622C68.1291 136.622 48.3568 116.849 48.3568 92.4795ZM58.3053 92.4795C58.3053 111.361 73.6179 126.673 92.499 126.673C111.38 126.673 126.693 111.361 126.693 92.4795C126.693 73.5984 111.38 58.2858 92.499 58.2858C73.6179 58.2858 58.3053 73.5984 58.3053 92.4795Z" stroke="black" stroke-width="6.74479"/>
<path d="M149.614 43.0889C149.614 47.3618 146.145 50.8093 141.894 50.8093C137.621 50.8093 134.173 47.34 134.173 43.0889C134.173 38.816 137.642 35.3685 141.894 35.3685C146.137 35.3685 149.614 38.8449 149.614 43.0889Z" stroke="black" stroke-width="6.74479"/>
</svg>
