<svg width="16" height="18" viewBox="0 0 16 18" fill="none" xmlns="http://www.w3.org/2000/svg">
<path d="M15.25 6.93768C13.9931 6.84235 12.8093 6.38954 11.8277 5.67127L11.2312 5.23482V5.9739V12.2608C11.2312 15.2147 8.85385 17.625 5.92814 17.625C3.00128 17.625 0.625004 15.2397 0.625004 12.2608C0.625004 9.43774 2.75003 7.15694 5.44943 6.91682V9.26084C4.017 9.4912 2.90852 10.7504 2.90852 12.2608C2.90852 13.9218 4.2362 15.2968 5.9022 15.2968C7.5682 15.2968 8.89586 13.9218 8.89586 12.2608V0.375H11.1942C11.3682 2.57619 13.0615 4.35345 15.25 4.60039V6.93768Z" stroke="black" stroke-width="0.75"/>
</svg>
