<svg width="19" height="16" viewBox="0 0 19 16" fill="none" xmlns="http://www.w3.org/2000/svg">
<path d="M5.78762 14.7505H5.78742C4.35828 14.7513 2.95119 14.4489 1.65694 13.8698C3.1721 13.7453 4.62291 13.1788 5.82591 12.2339L6.65177 11.5851L5.60179 11.5641C4.90945 11.5501 4.23873 11.3204 3.68323 10.907C3.29024 10.6145 2.9688 10.2404 2.73927 9.81308C3.13355 9.82324 3.52841 9.77571 3.91115 9.67099L3.88619 8.94166C3.13494 8.79044 2.45924 8.38373 1.97396 7.79065C1.60698 7.34216 1.36602 6.80803 1.27054 6.24287C1.66785 6.38469 2.08608 6.46438 2.51041 6.47785L3.81928 6.5194L2.7308 5.79134C2.02901 5.32192 1.53229 4.60291 1.34158 3.78042C1.19224 3.13631 1.23935 2.46659 1.47025 1.85563C2.35967 2.83581 3.42191 3.64646 4.6055 4.24614C5.96334 4.93409 7.4506 5.32901 8.97085 5.4053L9.4669 5.43019L9.35501 4.94629C9.1905 4.23483 9.26495 3.48898 9.56684 2.82406C9.86873 2.15915 10.3813 1.61221 11.0252 1.26779C11.6691 0.923378 12.4085 0.800677 13.1292 0.918661C13.8498 1.03664 14.5115 1.38874 15.012 1.92051L15.1542 2.07165L15.3578 2.03138C15.8467 1.93469 16.3243 1.79153 16.7842 1.60435C16.5241 1.95753 16.1949 2.25884 15.8126 2.48796L16.0487 3.1821C16.377 3.14395 16.7021 3.08464 17.0219 3.00471C16.7284 3.30966 16.4077 3.58845 16.0634 3.83745L15.8996 3.95595L15.9085 4.15797C15.9153 4.31051 15.9187 4.46668 15.9187 4.61944C15.9187 9.33682 12.3282 14.7505 5.78762 14.7505ZM17.1178 1.04405C16.5372 1.32923 15.9212 1.53769 15.2851 1.66351L17.1178 1.04405ZM16.6482 2.32214C16.4219 2.3719 16.1929 2.4103 15.9622 2.43711L16.0054 2.8096L16.1982 3.13124C16.4243 2.99573 16.6353 2.83959 16.8288 2.66564C17.0483 2.61415 17.2652 2.55248 17.479 2.48084L16.6482 2.32214ZM16.2937 4.61944C16.2937 4.46124 16.2902 4.29952 16.2832 4.14132L5.78762 15.1255C12.5784 15.1255 16.2937 9.49808 16.2937 4.61944Z" stroke="black" stroke-width="0.75"/>
</svg>
