<svg width="99" height="45" viewBox="0 0 99 45" fill="none" xmlns="http://www.w3.org/2000/svg">
<path d="M14.616 36V12.708L15.3 12.96L2.844 28.188L2.448 27.36H20.808V29.16H2.7L1.656 27.036L14.94 10.8H16.416V36H14.616ZM26.2122 36V10.8H35.2842C36.7722 10.8 38.0922 11.136 39.2442 11.808C40.4202 12.48 41.3442 13.392 42.0162 14.544C42.6882 15.672 43.0242 16.956 43.0242 18.396C43.0242 19.836 42.7002 21.096 42.0522 22.176C41.4282 23.256 40.5522 24.108 39.4242 24.732C38.3202 25.332 37.0602 25.632 35.6442 25.632H28.0122V36H26.2122ZM41.9082 36L35.6442 25.164L37.1562 24.228L43.9962 36H41.9082ZM28.0122 23.832H35.8602C36.8922 23.832 37.8042 23.604 38.5962 23.148C39.3882 22.692 40.0002 22.056 40.4322 21.24C40.8882 20.424 41.1162 19.5 41.1162 18.468C41.1162 17.34 40.8642 16.332 40.3602 15.444C39.8562 14.556 39.1482 13.86 38.2362 13.356C37.3482 12.852 36.3282 12.6 35.1762 12.6H28.0122V23.832ZM48.7825 36V10.8H50.5825V34.2H62.9305V36H48.7825Z" fill="black"/>
<mask id="path-2-inside-1_9_255" fill="white">
<path d="M98.5829 16.1359C98.4512 11.3082 95.126 6.67921 90.4965 4.87924C85.5613 2.96046 80.0428 4.24151 76.4377 8.14282C74.786 9.93026 73.6339 12.277 73.1934 14.751C72.7337 17.3333 73.0997 19.8578 74.2238 21.8593C76.5601 26.0186 79.042 30.023 81.6697 34.2626C82.7815 36.0565 83.9311 37.9112 85.0786 39.794L85.8136 41L86.5569 39.7992C87.5836 38.1405 88.5872 36.5159 89.5754 34.9162C89.9367 34.3314 90.2947 33.752 90.6505 33.1761L89.5202 31.7057C89.0509 32.4651 88.5781 33.2305 88.0996 34.005C87.3509 35.217 86.5933 36.4431 85.8237 37.6876C84.9195 36.2136 84.0203 34.7625 83.1443 33.3494C80.5268 29.126 78.0543 25.1371 75.7365 21.0104C74.8083 19.3579 74.5118 17.243 74.9013 15.0548C75.2844 12.9031 76.2824 10.8664 77.7119 9.31951C79.8686 6.98548 82.8162 5.73563 85.8407 5.73563C87.1887 5.73563 88.5525 5.98399 89.8677 6.49543C93.8649 8.0495 96.7358 12.0334 96.8489 16.1832C96.9146 18.5944 96.3555 20.7116 95.1395 22.6556C93.8028 24.793 92.4801 26.9227 91.1382 29.0899L90.2705 28.7789C88.4238 27.7942 87.6491 26.6637 87.3294 25.9795C86.0755 23.8694 86.2741 21.5458 86.2741 21.5458C86.2835 21.5418 86.2929 21.538 86.3022 21.5341C86.3061 21.5414 86.3108 21.5486 86.3153 21.5559C86.3352 21.6302 86.356 21.7054 86.3778 21.782C86.4107 21.9388 86.4427 22.0958 86.4837 22.2504C86.5326 22.4344 86.5944 22.6161 86.6628 22.794C86.7342 22.9802 86.8138 23.1641 86.902 23.343C86.9626 23.4659 87.0482 23.5761 87.1149 23.6963C87.2107 23.8689 87.3309 24.0211 87.4741 24.1558C87.5498 24.2271 87.6202 24.3068 87.7054 24.3643C87.8188 24.4408 87.9441 24.5 88.0645 24.5659C88.0986 24.5844 88.133 24.604 88.1693 24.6164C88.2702 24.6505 88.3721 24.6817 88.4741 24.7122C88.4941 24.7182 88.5165 24.7185 88.5377 24.7181C88.7626 24.7136 88.9883 24.7166 89.2122 24.6993C89.3048 24.6922 89.3946 24.6427 89.4845 24.6102C89.551 24.5861 89.618 24.5618 89.6812 24.5305C89.7533 24.4948 89.8222 24.452 89.8915 24.4107C90.0318 24.3272 90.1557 24.2197 90.2485 24.0891C90.3522 23.9433 90.4776 23.8105 90.534 23.631C90.5884 23.4584 90.6712 23.2948 90.7277 23.1226C90.7628 23.0154 90.7759 22.9001 90.7916 22.7874C90.7996 22.729 90.8167 22.7023 90.881 22.6892C91.0125 22.6625 91.1409 22.62 91.2704 22.5828C91.3504 22.5598 91.4308 22.5373 91.5093 22.5098C91.5659 22.4902 91.6234 22.4686 91.6742 22.4376C91.7922 22.3655 91.9051 22.285 92.0228 22.2121C92.1907 22.108 92.3185 21.9624 92.438 21.8099C92.4691 21.7704 92.4902 21.7237 92.5158 21.6798C92.8371 21.2922 92.8462 20.8165 92.7812 20.4619C92.7712 20.3687 92.7416 20.2538 92.6916 20.1173C92.6914 20.114 92.6911 20.1106 92.6908 20.1074C92.6895 20.0895 92.6792 20.0722 92.6716 20.0553C92.6194 19.9399 92.5742 19.8203 92.5121 19.7105C91.8634 18.428 89.944 18.0562 88.5462 17.9608C88.5631 17.9575 88.5809 17.9577 88.5977 17.9536C88.7242 17.9227 88.8538 17.9344 88.9722 17.8977C89.0968 17.8592 89.2264 17.8645 89.3452 17.8289C89.4385 17.8011 89.5316 17.7941 89.6235 17.7732C89.7453 17.7456 89.8633 17.702 89.9839 17.669C90.0853 17.6413 90.1895 17.6232 90.2903 17.5935C90.3921 17.5634 90.4913 17.5239 90.5919 17.489C90.6609 17.465 90.7319 17.4458 90.7992 17.4179C90.9182 17.3684 91.0357 17.3153 91.1528 17.2612C91.2475 17.2175 91.3413 17.1716 91.4341 17.1238C91.5198 17.0795 91.6093 17.0396 91.6872 16.9837C91.9144 16.8204 92.1166 16.6283 92.298 16.4153C92.4062 16.2882 92.4721 16.1373 92.5406 15.9852C92.6385 15.7681 92.6689 15.54 92.6657 15.3113C92.6633 15.1265 92.6409 14.9429 92.5919 14.7652C92.5641 14.6227 92.5202 14.4833 92.4527 14.3505C92.3472 14.1433 92.2128 13.9542 92.0291 13.8087C91.9206 13.7227 91.7959 13.6575 91.6843 13.575C91.5209 13.4543 91.3297 13.3964 91.1425 13.3327C91.0144 13.2889 90.8783 13.2655 90.7439 13.2442C90.6407 13.2279 90.6073 13.2169 90.5876 13.1685C90.5809 13.1373 90.5727 13.1064 90.5636 13.0756C90.563 13.0729 90.5628 13.0718 90.5622 13.0689C90.5427 12.9602 90.5018 12.8552 90.4683 12.7492C90.4466 12.6806 90.4214 12.6131 90.3968 12.5453C90.3373 12.3825 90.2579 12.231 90.1499 12.0944C90.0941 12.024 90.0513 11.9413 89.9882 11.8787C89.8678 11.7594 89.7431 11.6424 89.6083 11.5402C89.5316 11.482 89.4302 11.4571 89.3413 11.414C89.2669 11.3781 89.1896 11.3569 89.1111 11.341C87.9263 11.0159 87.3876 11.7275 87.3876 11.7275C87.2856 11.8275 87.1706 11.9166 87.083 12.0276C86.9793 12.1591 86.8948 12.3065 86.8096 12.4513C86.7373 12.5742 86.6707 12.7011 86.6114 12.8308C86.563 12.9365 86.5271 13.0483 86.4896 13.1588C86.4409 13.3024 86.3943 13.4468 86.3506 13.5921C86.3237 13.6814 86.3019 13.7726 86.2809 13.8636C86.2505 13.9955 86.2188 14.1272 86.1949 14.2603C86.1657 14.4226 86.1435 14.5861 86.1193 14.7493C86.0934 14.9235 86.0684 15.0979 86.0431 15.2723C86.0397 15.2961 86.0341 15.3198 86.0326 15.3438C86.0137 15.6721 85.9965 16.0007 85.9756 16.3289C85.9691 16.4319 85.9527 16.5344 85.9409 16.6371C85.9347 16.6383 85.9286 16.6396 85.9225 16.6408C85.9202 16.628 85.9167 16.6152 85.9157 16.6024C85.9031 16.4584 85.9027 16.313 85.8864 16.1695C85.8564 15.9067 85.8201 15.6445 85.783 15.3825C85.7562 15.1922 85.7311 15.0009 85.6917 14.8129C85.6438 14.5835 85.5824 14.3568 85.5253 14.1294C85.5238 14.1233 85.5221 14.1173 85.5204 14.1113C85.5109 14.0737 85.5012 14.0361 85.4918 13.9985C85.4659 13.8949 85.4412 13.7908 85.408 13.6897C85.221 12.9968 84.9595 12.5091 84.6707 12.1657C84.6593 12.1505 84.6499 12.1339 84.6381 12.1193C84.5867 12.0554 84.5248 12 84.4617 11.9456C84.4214 11.9083 84.381 11.8733 84.3403 11.8405C84.2741 11.7811 84.2096 11.7166 84.1337 11.6734C84.0369 11.6187 83.9573 11.5347 83.8371 11.5154C83.754 11.502 83.676 11.4565 83.5957 11.4255C83.5907 11.4236 83.5855 11.4207 83.5805 11.4206C83.3657 11.4161 83.1557 11.3399 82.938 11.3787C82.863 11.3921 82.7873 11.4029 82.7124 11.4166C82.6337 11.4307 82.5882 11.4441 82.5882 11.4441C82.4659 11.4832 82.3516 11.547 82.2338 11.6001C82.1125 11.6549 82.0066 11.7283 81.9109 11.8133C81.8046 11.9078 81.711 12.0163 81.6229 12.1294C81.4882 12.3027 81.384 12.4981 81.3089 12.7075C81.2338 12.9162 81.1771 13.1279 81.1469 13.3482C81.1423 13.3812 81.0659 13.4141 81.0173 13.4293C80.8366 13.485 80.649 13.5214 80.4729 13.5881C80.3298 13.6423 80.1982 13.7279 80.0635 13.803C79.8669 13.9129 79.6872 14.0493 79.5569 14.2325C79.4569 14.3734 79.3824 14.5333 79.3045 14.6886C79.3045 14.6886 79.3004 14.6983 79.2942 14.7153C79.2134 14.8897 79.189 15.0766 79.1813 15.2642C79.1761 15.3386 79.1749 15.4181 79.1787 15.5012C79.1811 15.5828 79.1895 15.6642 79.206 15.7448C79.2176 15.8103 79.2341 15.8773 79.254 15.945C79.2541 15.9454 79.2542 15.946 79.2544 15.9464C79.2721 16.0063 79.2934 16.0667 79.3188 16.1276C79.3386 16.1847 79.3537 16.2439 79.3754 16.3005C79.393 16.3462 79.4155 16.3927 79.4459 16.4306C79.555 16.5663 79.6635 16.7032 79.7822 16.8303C79.8692 16.9235 79.9674 17.0075 80.0688 17.0848C80.1452 17.1428 80.2343 17.1844 80.3185 17.2317C80.4072 17.2814 80.4957 17.3318 80.5866 17.3769C80.6778 17.4221 80.7718 17.4614 80.8648 17.5028C80.9317 17.5325 80.9982 17.5629 81.0661 17.5901C81.1237 17.6133 81.1821 17.6359 81.2417 17.6528C81.3291 17.6774 81.4187 17.6946 81.5063 17.7188C81.6035 17.7457 81.6994 17.7767 81.7959 17.8063C81.8035 17.8085 81.8101 17.8148 81.8177 17.8158C81.9476 17.8361 82.0782 17.8522 82.2072 17.8767C82.3419 17.9025 82.475 17.9366 82.609 17.966C82.6323 17.971 82.6567 17.9706 82.6806 17.9728C82.8835 17.991 83.0913 17.9885 83.2879 18.0345C83.4352 18.0691 83.5787 18.059 83.7236 18.0714C83.7604 18.0746 83.7972 18.0782 83.834 18.0818C83.1554 18.1589 82.518 18.2648 82.518 18.2648L82.5231 18.2728C82.4085 18.2938 82.315 18.3148 82.2581 18.3348C82.2581 18.3348 80.9739 18.613 80.148 19.1874C80.14 19.1921 80.1317 19.1965 80.1236 19.2014C80.1156 19.2063 80.109 19.2138 80.1013 19.2194C80.0315 19.2701 79.9649 19.3224 79.9035 19.3775L79.894 19.3741C79.894 19.3741 79.0802 20.0442 79.3073 21.0642C79.3109 21.0876 79.3116 21.111 79.3169 21.1346C79.3371 21.226 79.3537 21.3189 79.3791 21.4084C79.3924 21.4757 79.4072 21.5424 79.4307 21.6058C79.4704 21.7125 79.5361 21.8095 79.5913 21.9103C79.6909 22.0926 79.8382 22.236 79.9974 22.3612C80.1264 22.4627 80.275 22.5409 80.4209 22.6184C80.5332 22.6782 80.6522 22.728 80.7728 22.7689C80.8687 22.8013 80.9715 22.8139 81.0715 22.8346C81.1587 22.8527 81.2469 22.8674 81.3329 22.8902C81.3463 22.8937 81.3576 22.9125 81.3655 22.9312C81.3726 22.9592 81.3806 22.9904 81.3908 23.0267C81.3955 23.0456 81.4015 23.064 81.4061 23.0829C81.4376 23.2137 81.468 23.3451 81.5098 23.4724C81.547 23.5859 81.6204 23.687 81.6664 23.7982C81.7199 23.9275 81.8144 24.0263 81.8887 24.1391C81.9763 24.2722 82.0867 24.3756 82.2049 24.4694C82.3116 24.5542 82.4389 24.6173 82.5647 24.6724C82.6998 24.7318 82.8436 24.7715 82.9842 24.8181C83.0064 24.8254 83.0318 24.8261 83.0556 24.8257C83.2806 24.8219 83.5085 24.8378 83.7293 24.8053C83.8683 24.7848 84.0169 24.7538 84.1431 24.666C84.2537 24.5889 84.3834 24.5384 84.4914 24.4584C84.5867 24.3878 84.6692 24.2972 84.7474 24.207C84.856 24.0817 84.9645 23.9543 85.0565 23.8167C85.1327 23.7028 85.186 23.5733 85.2476 23.4497C85.2957 23.3531 85.3454 23.2569 85.386 23.1571C85.4182 23.0778 85.4367 22.993 85.4633 22.9114C85.4786 22.8648 85.5 22.8201 85.5152 22.7735C85.544 22.6855 85.5717 22.5971 85.5974 22.5082C85.6232 22.4191 85.6485 22.3295 85.6694 22.2389C85.6936 22.133 85.7148 22.026 85.7338 21.9189C85.7664 21.735 85.7963 21.5507 85.8278 21.3666C85.8317 21.3428 85.8387 21.3192 85.8441 21.2955C85.8538 21.2954 85.8635 21.2954 85.873 21.2952C85.8787 21.3399 85.8889 21.3846 85.8895 21.4293C85.893 21.7399 85.8943 22.0505 85.8966 22.361C85.9009 22.9562 85.9353 23.5497 86.0199 24.1389C86.0558 24.3893 86.1161 24.6365 86.1678 24.8846C86.1933 25.0074 86.2208 25.1301 86.2538 25.251C86.2808 25.3503 86.3158 25.4476 86.35 25.5449C86.3959 25.6749 86.4412 25.8051 86.4927 25.9329C86.5389 26.0476 86.5915 26.1596 86.6441 26.2716C86.7098 26.4114 86.7767 26.5505 86.8464 26.6883C86.8766 26.7483 86.9143 26.8047 86.9495 26.862C87.0098 26.96 87.0689 27.0586 87.132 27.1548C87.132 27.1548 88.0756 28.8865 89.6642 29.8309L90.3559 30.3542L91.7933 31.3275C93.4176 28.7013 95.0041 26.1433 96.6104 23.5749C98.0131 21.3324 98.6582 18.8991 98.5829 16.1359Z"/>
</mask>
<path d="M98.5829 16.1359C98.4512 11.3082 95.126 6.67921 90.4965 4.87924C85.5613 2.96046 80.0428 4.24151 76.4377 8.14282C74.786 9.93026 73.6339 12.277 73.1934 14.751C72.7337 17.3333 73.0997 19.8578 74.2238 21.8593C76.5601 26.0186 79.042 30.023 81.6697 34.2626C82.7815 36.0565 83.9311 37.9112 85.0786 39.794L85.8136 41L86.5569 39.7992C87.5836 38.1405 88.5872 36.5159 89.5754 34.9162C89.9367 34.3314 90.2947 33.752 90.6505 33.1761L89.5202 31.7057C89.0509 32.4651 88.5781 33.2305 88.0996 34.005C87.3509 35.217 86.5933 36.4431 85.8237 37.6876C84.9195 36.2136 84.0203 34.7625 83.1443 33.3494C80.5268 29.126 78.0543 25.1371 75.7365 21.0104C74.8083 19.3579 74.5118 17.243 74.9013 15.0548C75.2844 12.9031 76.2824 10.8664 77.7119 9.31951C79.8686 6.98548 82.8162 5.73563 85.8407 5.73563C87.1887 5.73563 88.5525 5.98399 89.8677 6.49543C93.8649 8.0495 96.7358 12.0334 96.8489 16.1832C96.9146 18.5944 96.3555 20.7116 95.1395 22.6556C93.8028 24.793 92.4801 26.9227 91.1382 29.0899L90.2705 28.7789C88.4238 27.7942 87.6491 26.6637 87.3294 25.9795C86.0755 23.8694 86.2741 21.5458 86.2741 21.5458C86.2835 21.5418 86.2929 21.538 86.3022 21.5341C86.3061 21.5414 86.3108 21.5486 86.3153 21.5559C86.3352 21.6302 86.356 21.7054 86.3778 21.782C86.4107 21.9388 86.4427 22.0958 86.4837 22.2504C86.5326 22.4344 86.5944 22.6161 86.6628 22.794C86.7342 22.9802 86.8138 23.1641 86.902 23.343C86.9626 23.4659 87.0482 23.5761 87.1149 23.6963C87.2107 23.8689 87.3309 24.0211 87.4741 24.1558C87.5498 24.2271 87.6202 24.3068 87.7054 24.3643C87.8188 24.4408 87.9441 24.5 88.0645 24.5659C88.0986 24.5844 88.133 24.604 88.1693 24.6164C88.2702 24.6505 88.3721 24.6817 88.4741 24.7122C88.4941 24.7182 88.5165 24.7185 88.5377 24.7181C88.7626 24.7136 88.9883 24.7166 89.2122 24.6993C89.3048 24.6922 89.3946 24.6427 89.4845 24.6102C89.551 24.5861 89.618 24.5618 89.6812 24.5305C89.7533 24.4948 89.8222 24.452 89.8915 24.4107C90.0318 24.3272 90.1557 24.2197 90.2485 24.0891C90.3522 23.9433 90.4776 23.8105 90.534 23.631C90.5884 23.4584 90.6712 23.2948 90.7277 23.1226C90.7628 23.0154 90.7759 22.9001 90.7916 22.7874C90.7996 22.729 90.8167 22.7023 90.881 22.6892C91.0125 22.6625 91.1409 22.62 91.2704 22.5828C91.3504 22.5598 91.4308 22.5373 91.5093 22.5098C91.5659 22.4902 91.6234 22.4686 91.6742 22.4376C91.7922 22.3655 91.9051 22.285 92.0228 22.2121C92.1907 22.108 92.3185 21.9624 92.438 21.8099C92.4691 21.7704 92.4902 21.7237 92.5158 21.6798C92.8371 21.2922 92.8462 20.8165 92.7812 20.4619C92.7712 20.3687 92.7416 20.2538 92.6916 20.1173C92.6914 20.114 92.6911 20.1106 92.6908 20.1074C92.6895 20.0895 92.6792 20.0722 92.6716 20.0553C92.6194 19.9399 92.5742 19.8203 92.5121 19.7105C91.8634 18.428 89.944 18.0562 88.5462 17.9608C88.5631 17.9575 88.5809 17.9577 88.5977 17.9536C88.7242 17.9227 88.8538 17.9344 88.9722 17.8977C89.0968 17.8592 89.2264 17.8645 89.3452 17.8289C89.4385 17.8011 89.5316 17.7941 89.6235 17.7732C89.7453 17.7456 89.8633 17.702 89.9839 17.669C90.0853 17.6413 90.1895 17.6232 90.2903 17.5935C90.3921 17.5634 90.4913 17.5239 90.5919 17.489C90.6609 17.465 90.7319 17.4458 90.7992 17.4179C90.9182 17.3684 91.0357 17.3153 91.1528 17.2612C91.2475 17.2175 91.3413 17.1716 91.4341 17.1238C91.5198 17.0795 91.6093 17.0396 91.6872 16.9837C91.9144 16.8204 92.1166 16.6283 92.298 16.4153C92.4062 16.2882 92.4721 16.1373 92.5406 15.9852C92.6385 15.7681 92.6689 15.54 92.6657 15.3113C92.6633 15.1265 92.6409 14.9429 92.5919 14.7652C92.5641 14.6227 92.5202 14.4833 92.4527 14.3505C92.3472 14.1433 92.2128 13.9542 92.0291 13.8087C91.9206 13.7227 91.7959 13.6575 91.6843 13.575C91.5209 13.4543 91.3297 13.3964 91.1425 13.3327C91.0144 13.2889 90.8783 13.2655 90.7439 13.2442C90.6407 13.2279 90.6073 13.2169 90.5876 13.1685C90.5809 13.1373 90.5727 13.1064 90.5636 13.0756C90.563 13.0729 90.5628 13.0718 90.5622 13.0689C90.5427 12.9602 90.5018 12.8552 90.4683 12.7492C90.4466 12.6806 90.4214 12.6131 90.3968 12.5453C90.3373 12.3825 90.2579 12.231 90.1499 12.0944C90.0941 12.024 90.0513 11.9413 89.9882 11.8787C89.8678 11.7594 89.7431 11.6424 89.6083 11.5402C89.5316 11.482 89.4302 11.4571 89.3413 11.414C89.2669 11.3781 89.1896 11.3569 89.1111 11.341C87.9263 11.0159 87.3876 11.7275 87.3876 11.7275C87.2856 11.8275 87.1706 11.9166 87.083 12.0276C86.9793 12.1591 86.8948 12.3065 86.8096 12.4513C86.7373 12.5742 86.6707 12.7011 86.6114 12.8308C86.563 12.9365 86.5271 13.0483 86.4896 13.1588C86.4409 13.3024 86.3943 13.4468 86.3506 13.5921C86.3237 13.6814 86.3019 13.7726 86.2809 13.8636C86.2505 13.9955 86.2188 14.1272 86.1949 14.2603C86.1657 14.4226 86.1435 14.5861 86.1193 14.7493C86.0934 14.9235 86.0684 15.0979 86.0431 15.2723C86.0397 15.2961 86.0341 15.3198 86.0326 15.3438C86.0137 15.6721 85.9965 16.0007 85.9756 16.3289C85.9691 16.4319 85.9527 16.5344 85.9409 16.6371C85.9347 16.6383 85.9286 16.6396 85.9225 16.6408C85.9202 16.628 85.9167 16.6152 85.9157 16.6024C85.9031 16.4584 85.9027 16.313 85.8864 16.1695C85.8564 15.9067 85.8201 15.6445 85.783 15.3825C85.7562 15.1922 85.7311 15.0009 85.6917 14.8129C85.6438 14.5835 85.5824 14.3568 85.5253 14.1294C85.5238 14.1233 85.5221 14.1173 85.5204 14.1113C85.5109 14.0737 85.5012 14.0361 85.4918 13.9985C85.4659 13.8949 85.4412 13.7908 85.408 13.6897C85.221 12.9968 84.9595 12.5091 84.6707 12.1657C84.6593 12.1505 84.6499 12.1339 84.6381 12.1193C84.5867 12.0554 84.5248 12 84.4617 11.9456C84.4214 11.9083 84.381 11.8733 84.3403 11.8405C84.2741 11.7811 84.2096 11.7166 84.1337 11.6734C84.0369 11.6187 83.9573 11.5347 83.8371 11.5154C83.754 11.502 83.676 11.4565 83.5957 11.4255C83.5907 11.4236 83.5855 11.4207 83.5805 11.4206C83.3657 11.4161 83.1557 11.3399 82.938 11.3787C82.863 11.3921 82.7873 11.4029 82.7124 11.4166C82.6337 11.4307 82.5882 11.4441 82.5882 11.4441C82.4659 11.4832 82.3516 11.547 82.2338 11.6001C82.1125 11.6549 82.0066 11.7283 81.9109 11.8133C81.8046 11.9078 81.711 12.0163 81.6229 12.1294C81.4882 12.3027 81.384 12.4981 81.3089 12.7075C81.2338 12.9162 81.1771 13.1279 81.1469 13.3482C81.1423 13.3812 81.0659 13.4141 81.0173 13.4293C80.8366 13.485 80.649 13.5214 80.4729 13.5881C80.3298 13.6423 80.1982 13.7279 80.0635 13.803C79.8669 13.9129 79.6872 14.0493 79.5569 14.2325C79.4569 14.3734 79.3824 14.5333 79.3045 14.6886C79.3045 14.6886 79.3004 14.6983 79.2942 14.7153C79.2134 14.8897 79.189 15.0766 79.1813 15.2642C79.1761 15.3386 79.1749 15.4181 79.1787 15.5012C79.1811 15.5828 79.1895 15.6642 79.206 15.7448C79.2176 15.8103 79.2341 15.8773 79.254 15.945C79.2541 15.9454 79.2542 15.946 79.2544 15.9464C79.2721 16.0063 79.2934 16.0667 79.3188 16.1276C79.3386 16.1847 79.3537 16.2439 79.3754 16.3005C79.393 16.3462 79.4155 16.3927 79.4459 16.4306C79.555 16.5663 79.6635 16.7032 79.7822 16.8303C79.8692 16.9235 79.9674 17.0075 80.0688 17.0848C80.1452 17.1428 80.2343 17.1844 80.3185 17.2317C80.4072 17.2814 80.4957 17.3318 80.5866 17.3769C80.6778 17.4221 80.7718 17.4614 80.8648 17.5028C80.9317 17.5325 80.9982 17.5629 81.0661 17.5901C81.1237 17.6133 81.1821 17.6359 81.2417 17.6528C81.3291 17.6774 81.4187 17.6946 81.5063 17.7188C81.6035 17.7457 81.6994 17.7767 81.7959 17.8063C81.8035 17.8085 81.8101 17.8148 81.8177 17.8158C81.9476 17.8361 82.0782 17.8522 82.2072 17.8767C82.3419 17.9025 82.475 17.9366 82.609 17.966C82.6323 17.971 82.6567 17.9706 82.6806 17.9728C82.8835 17.991 83.0913 17.9885 83.2879 18.0345C83.4352 18.0691 83.5787 18.059 83.7236 18.0714C83.7604 18.0746 83.7972 18.0782 83.834 18.0818C83.1554 18.1589 82.518 18.2648 82.518 18.2648L82.5231 18.2728C82.4085 18.2938 82.315 18.3148 82.2581 18.3348C82.2581 18.3348 80.9739 18.613 80.148 19.1874C80.14 19.1921 80.1317 19.1965 80.1236 19.2014C80.1156 19.2063 80.109 19.2138 80.1013 19.2194C80.0315 19.2701 79.9649 19.3224 79.9035 19.3775L79.894 19.3741C79.894 19.3741 79.0802 20.0442 79.3073 21.0642C79.3109 21.0876 79.3116 21.111 79.3169 21.1346C79.3371 21.226 79.3537 21.3189 79.3791 21.4084C79.3924 21.4757 79.4072 21.5424 79.4307 21.6058C79.4704 21.7125 79.5361 21.8095 79.5913 21.9103C79.6909 22.0926 79.8382 22.236 79.9974 22.3612C80.1264 22.4627 80.275 22.5409 80.4209 22.6184C80.5332 22.6782 80.6522 22.728 80.7728 22.7689C80.8687 22.8013 80.9715 22.8139 81.0715 22.8346C81.1587 22.8527 81.2469 22.8674 81.3329 22.8902C81.3463 22.8937 81.3576 22.9125 81.3655 22.9312C81.3726 22.9592 81.3806 22.9904 81.3908 23.0267C81.3955 23.0456 81.4015 23.064 81.4061 23.0829C81.4376 23.2137 81.468 23.3451 81.5098 23.4724C81.547 23.5859 81.6204 23.687 81.6664 23.7982C81.7199 23.9275 81.8144 24.0263 81.8887 24.1391C81.9763 24.2722 82.0867 24.3756 82.2049 24.4694C82.3116 24.5542 82.4389 24.6173 82.5647 24.6724C82.6998 24.7318 82.8436 24.7715 82.9842 24.8181C83.0064 24.8254 83.0318 24.8261 83.0556 24.8257C83.2806 24.8219 83.5085 24.8378 83.7293 24.8053C83.8683 24.7848 84.0169 24.7538 84.1431 24.666C84.2537 24.5889 84.3834 24.5384 84.4914 24.4584C84.5867 24.3878 84.6692 24.2972 84.7474 24.207C84.856 24.0817 84.9645 23.9543 85.0565 23.8167C85.1327 23.7028 85.186 23.5733 85.2476 23.4497C85.2957 23.3531 85.3454 23.2569 85.386 23.1571C85.4182 23.0778 85.4367 22.993 85.4633 22.9114C85.4786 22.8648 85.5 22.8201 85.5152 22.7735C85.544 22.6855 85.5717 22.5971 85.5974 22.5082C85.6232 22.4191 85.6485 22.3295 85.6694 22.2389C85.6936 22.133 85.7148 22.026 85.7338 21.9189C85.7664 21.735 85.7963 21.5507 85.8278 21.3666C85.8317 21.3428 85.8387 21.3192 85.8441 21.2955C85.8538 21.2954 85.8635 21.2954 85.873 21.2952C85.8787 21.3399 85.8889 21.3846 85.8895 21.4293C85.893 21.7399 85.8943 22.0505 85.8966 22.361C85.9009 22.9562 85.9353 23.5497 86.0199 24.1389C86.0558 24.3893 86.1161 24.6365 86.1678 24.8846C86.1933 25.0074 86.2208 25.1301 86.2538 25.251C86.2808 25.3503 86.3158 25.4476 86.35 25.5449C86.3959 25.6749 86.4412 25.8051 86.4927 25.9329C86.5389 26.0476 86.5915 26.1596 86.6441 26.2716C86.7098 26.4114 86.7767 26.5505 86.8464 26.6883C86.8766 26.7483 86.9143 26.8047 86.9495 26.862C87.0098 26.96 87.0689 27.0586 87.132 27.1548C87.132 27.1548 88.0756 28.8865 89.6642 29.8309L90.3559 30.3542L91.7933 31.3275C93.4176 28.7013 95.0041 26.1433 96.6104 23.5749C98.0131 21.3324 98.6582 18.8991 98.5829 16.1359Z" stroke="black" stroke-width="1.21028" mask="url(#path-2-inside-1_9_255)"/>
</svg>
